<svg xmlns="http://www.w3.org/2000/svg" viewBox="0 0 400 280" width="400" height="280">
  <!-- Background -->
  <rect width="400" height="280" fill="#fdf2f8"/>
  <!-- Header -->
  <rect width="400" height="42" fill="#ffffff" stroke="#fbcfe8"/>
  <rect x="16" y="10" width="70" height="14" rx="3" fill="#db2777"/>
  <rect x="22" y="15" width="58" height="4" rx="1" fill="#fdf2f8"/>
  <rect x="130" y="10" width="140" height="22" rx="11" fill="#fce7f3"/>
  <circle cx="340" cy="21" r="12" fill="#fce7f3"/>
  <circle cx="370" cy="21" r="12" fill="#db2777"/>
  <rect x="365" y="14" width="10" height="14" rx="2" fill="#fff"/>
  <!-- Hero Banner -->
  <rect x="16" y="52" width="368" height="68" rx="16" fill="#fce7f3" stroke="#fbcfe8"/>
  <rect x="32" y="64" width="140" height="11" rx="3" fill="#9d174d"/>
  <rect x="32" y="80" width="200" height="6" rx="2" fill="#db2777" opacity="0.5"/>
  <rect x="32" y="94" width="80" height="18" rx="9" fill="#db2777"/>
  <rect x="40" y="99" width="64" height="8" rx="2" fill="#fff"/>
  <!-- Rose Gold Accent -->
  <rect x="310" y="58" width="60" height="56" rx="28" fill="#fbcfe8"/>
  <rect x="326" y="72" width="28" height="28" rx="14" fill="#f9a8d4"/>
  <!-- 3-Column Products Rounded -->
  <g>
    <rect x="16" y="130" width="116" height="140" rx="16" fill="#ffffff" stroke="#fbcfe8"/>
    <rect x="22" y="136" width="104" height="68" rx="12" fill="#fce7f3"/>
    <rect x="50" y="154" width="48" height="36" rx="6" fill="#f9a8d4"/>
    <rect x="22" y="212" width="80" height="6" rx="2" fill="#831843"/>
    <rect x="22" y="222" width="50" height="5" rx="2" fill="#9d174d" opacity="0.6"/>
    <rect x="22" y="232" width="36" height="7" rx="2" fill="#db2777"/>
    <rect x="22" y="246" width="70" height="16" rx="8" fill="#db2777"/>
    <rect x="30" y="250" width="54" height="8" rx="2" fill="#fff"/>
  </g>
  <g>
    <rect x="142" y="130" width="116" height="140" rx="16" fill="#ffffff" stroke="#fbcfe8"/>
    <rect x="148" y="136" width="104" height="68" rx="12" fill="#fff1f2"/>
    <rect x="176" y="150" width="48" height="40" rx="6" fill="#fecdd3"/>
    <rect x="148" y="212" width="86" height="6" rx="2" fill="#831843"/>
    <rect x="148" y="222" width="56" height="5" rx="2" fill="#9d174d" opacity="0.6"/>
    <rect x="148" y="232" width="40" height="7" rx="2" fill="#db2777"/>
    <rect x="148" y="246" width="70" height="16" rx="8" fill="#db2777"/>
    <rect x="156" y="250" width="54" height="8" rx="2" fill="#fff"/>
  </g>
  <g>
    <rect x="268" y="130" width="116" height="140" rx="16" fill="#ffffff" stroke="#fbcfe8"/>
    <rect x="274" y="136" width="104" height="68" rx="12" fill="#fef3c7"/>
    <rect x="302" y="152" width="48" height="38" rx="6" fill="#fde68a"/>
    <rect x="274" y="212" width="76" height="6" rx="2" fill="#831843"/>
    <rect x="274" y="222" width="60" height="5" rx="2" fill="#9d174d" opacity="0.6"/>
    <rect x="274" y="232" width="44" height="7" rx="2" fill="#db2777"/>
    <rect x="274" y="246" width="70" height="16" rx="8" fill="#db2777"/>
    <rect x="282" y="250" width="54" height="8" rx="2" fill="#fff"/>
  </g>
</svg>
