<svg xmlns="http://www.w3.org/2000/svg" viewBox="0 0 400 240" width="400" height="240">
  <defs>
    <linearGradient id="elec-hero" x1="0" x2="1" y1="0" y2="1">
      <stop offset="0%" stop-color="#0ea5e9"/>
      <stop offset="100%" stop-color="#0369a1"/>
    </linearGradient>
  </defs>
  <rect width="400" height="240" fill="#f1f5f9"/>
  <rect x="0" y="0" width="400" height="68" fill="url(#elec-hero)"/>
  <rect x="20" y="22" width="120" height="10" rx="2" fill="#ffffff"/>
  <rect x="20" y="38" width="180" height="6" rx="2" fill="#cbd5e1"/>
  <rect x="280" y="22" width="100" height="24" rx="4" fill="#f97316"/>
  <rect x="12" y="80" width="86" height="148" rx="6" fill="#ffffff" stroke="#e2e8f0"/>
  <g fill="#ffffff" stroke="#e2e8f0">
    <rect x="110" y="80" width="68" height="70" rx="6"/>
    <rect x="186" y="80" width="68" height="70" rx="6"/>
    <rect x="262" y="80" width="68" height="70" rx="6"/>
    <rect x="338" y="80" width="50" height="70" rx="6"/>
    <rect x="110" y="158" width="68" height="70" rx="6"/>
    <rect x="186" y="158" width="68" height="70" rx="6"/>
    <rect x="262" y="158" width="68" height="70" rx="6"/>
    <rect x="338" y="158" width="50" height="70" rx="6"/>
  </g>
</svg>

