<svg xmlns="http://www.w3.org/2000/svg" viewBox="0 0 400 280" width="400" height="280">
  <!-- Background -->
  <rect width="400" height="280" fill="#f1f5f9"/>
  <!-- Header -->
  <rect width="400" height="44" fill="#0ea5e9"/>
  <rect x="12" y="8" width="56" height="28" rx="4" fill="rgba(255,255,255,0.2)"/>
  <rect x="18" y="14" width="44" height="8" rx="2" fill="#fff"/>
  <rect x="18" y="24" width="30" height="6" rx="1" fill="rgba(255,255,255,0.7)"/>
  <rect x="100" y="10" width="200" height="24" rx="12" fill="rgba(255,255,255,0.15)"/>
  <circle cx="340" cy="22" r="12" fill="rgba(255,255,255,0.15)"/>
  <circle cx="370" cy="22" r="12" fill="#f97316"/>
  <rect x="365" y="14" width="10" height="16" rx="2" fill="#fff"/>
  <!-- Category Bar -->
  <rect x="0" y="44" width="400" height="28" fill="#ffffff" stroke="#e2e8f0"/>
  <rect x="16" y="50" width="50" height="16" rx="8" fill="#0ea5e9"/>
  <rect x="22" y="55" width="38" height="6" rx="2" fill="#fff"/>
  <rect x="74" y="50" width="56" height="16" rx="8" fill="#f1f5f9"/>
  <rect x="138" y="50" width="48" height="16" rx="8" fill="#f1f5f9"/>
  <rect x="194" y="50" width="60" height="16" rx="8" fill="#f1f5f9"/>
  <rect x="262" y="50" width="52" height="16" rx="8" fill="#f1f5f9"/>
  <!-- Hero Banner -->
  <rect x="12" y="80" width="376" height="60" rx="8" fill="#0369a1"/>
  <rect x="28" y="90" width="160" height="12" rx="3" fill="#fff"/>
  <rect x="28" y="108" width="220" height="6" rx="2" fill="rgba(255,255,255,0.6)"/>
  <rect x="28" y="120" width="70" height="14" rx="4" fill="#f97316"/>
  <rect x="34" y="124" width="58" height="6" rx="1" fill="#fff"/>
  <!-- 4-Column Product Grid -->
  <g>
    <rect x="12" y="148" width="90" height="124" rx="8" fill="#fff" stroke="#e2e8f0"/>
    <rect x="16" y="152" width="82" height="56" rx="6" fill="#e0f2fe"/>
    <rect x="38" y="166" width="38" height="30" rx="3" fill="#7dd3fc"/>
    <rect x="16" y="214" width="60" height="6" rx="2" fill="#0f172a"/>
    <rect x="16" y="224" width="40" height="5" rx="1" fill="#475569"/>
    <rect x="16" y="234" width="32" height="7" rx="2" fill="#0ea5e9"/>
    <rect x="16" y="248" width="50" height="16" rx="4" fill="#f97316"/>
    <rect x="22" y="252" width="38" height="8" rx="2" fill="#fff"/>
  </g>
  <g>
    <rect x="108" y="148" width="90" height="124" rx="8" fill="#fff" stroke="#e2e8f0"/>
    <rect x="112" y="152" width="82" height="56" rx="6" fill="#fef3c7"/>
    <rect x="134" y="164" width="38" height="32" rx="3" fill="#fcd34d"/>
    <rect x="112" y="214" width="66" height="6" rx="2" fill="#0f172a"/>
    <rect x="112" y="224" width="44" height="5" rx="1" fill="#475569"/>
    <rect x="112" y="234" width="36" height="7" rx="2" fill="#0ea5e9"/>
    <rect x="112" y="248" width="50" height="16" rx="4" fill="#f97316"/>
    <rect x="118" y="252" width="38" height="8" rx="2" fill="#fff"/>
  </g>
  <g>
    <rect x="204" y="148" width="90" height="124" rx="8" fill="#fff" stroke="#e2e8f0"/>
    <rect x="208" y="152" width="82" height="56" rx="6" fill="#dcfce7"/>
    <rect x="230" y="162" width="38" height="34" rx="3" fill="#86efac"/>
    <rect x="208" y="214" width="56" height="6" rx="2" fill="#0f172a"/>
    <rect x="208" y="224" width="48" height="5" rx="1" fill="#475569"/>
    <rect x="208" y="234" width="40" height="7" rx="2" fill="#0ea5e9"/>
    <rect x="208" y="248" width="50" height="16" rx="4" fill="#f97316"/>
    <rect x="214" y="252" width="38" height="8" rx="2" fill="#fff"/>
  </g>
  <g>
    <rect x="300" y="148" width="90" height="124" rx="8" fill="#fff" stroke="#e2e8f0"/>
    <rect x="304" y="152" width="82" height="56" rx="6" fill="#ede9fe"/>
    <rect x="326" y="166" width="38" height="30" rx="3" fill="#c4b5fd"/>
    <rect x="304" y="214" width="62" height="6" rx="2" fill="#0f172a"/>
    <rect x="304" y="224" width="42" height="5" rx="1" fill="#475569"/>
    <rect x="304" y="234" width="34" height="7" rx="2" fill="#0ea5e9"/>
    <rect x="304" y="248" width="50" height="16" rx="4" fill="#f97316"/>
    <rect x="310" y="252" width="38" height="8" rx="2" fill="#fff"/>
  </g>
</svg>
