<svg xmlns="http://www.w3.org/2000/svg" viewBox="0 0 400 280" width="400" height="280">
  <!-- Background -->
  <rect width="400" height="280" fill="#fafaf9"/>
  <!-- Thin Header -->
  <rect width="400" height="36" fill="#ffffff" stroke="#e7e5e4"/>
  <rect x="160" y="10" width="80" height="12" rx="2" fill="#1f2937"/>
  <rect x="16" y="14" width="40" height="8" rx="1" fill="#6b7280"/>
  <rect x="64" y="14" width="50" height="8" rx="1" fill="#6b7280"/>
  <circle cx="370" cy="18" r="10" fill="#f5f5f4"/>
  <!-- Full-width Hero Image -->
  <rect x="0" y="36" width="400" height="100" fill="#292524"/>
  <rect x="0" y="36" width="200" height="100" fill="#1c1917"/>
  <rect x="30" y="56" width="140" height="16" rx="2" fill="#fafafa"/>
  <rect x="30" y="78" width="120" height="8" rx="2" fill="#a8a29e"/>
  <rect x="30" y="96" width="80" height="22" rx="2" fill="transparent" stroke="#fafafa" stroke-width="1.5"/>
  <rect x="38" y="102" width="64" height="10" rx="1" fill="#fafafa"/>
  <!-- Featured image right -->
  <rect x="220" y="46" width="160" height="80" rx="2" fill="#44403c"/>
  <rect x="260" y="62" width="80" height="48" rx="1" fill="#57534e"/>
  <!-- Editorial Grid 3 cols -->
  <g>
    <rect x="12" y="146" width="120" height="126" rx="2" fill="#ffffff" stroke="#e7e5e4"/>
    <rect x="12" y="146" width="120" height="76" fill="#f5f5f4"/>
    <rect x="42" y="166" width="60" height="40" rx="1" fill="#d6d3d1"/>
    <rect x="18" y="228" width="90" height="7" rx="1" fill="#1f2937"/>
    <rect x="18" y="240" width="60" height="5" rx="1" fill="#a8a29e"/>
    <rect x="18" y="252" width="40" height="7" rx="1" fill="#b45309"/>
    <rect x="18" y="264" width="50" height="4" rx="1" fill="#d6d3d1"/>
  </g>
  <g>
    <rect x="140" y="146" width="120" height="126" rx="2" fill="#ffffff" stroke="#e7e5e4"/>
    <rect x="140" y="146" width="120" height="76" fill="#fef3c7"/>
    <rect x="170" y="162" width="60" height="44" rx="1" fill="#fde68a"/>
    <rect x="146" y="228" width="86" height="7" rx="1" fill="#1f2937"/>
    <rect x="146" y="240" width="66" height="5" rx="1" fill="#a8a29e"/>
    <rect x="146" y="252" width="44" height="7" rx="1" fill="#b45309"/>
    <rect x="146" y="264" width="50" height="4" rx="1" fill="#d6d3d1"/>
  </g>
  <g>
    <rect x="268" y="146" width="120" height="126" rx="2" fill="#ffffff" stroke="#e7e5e4"/>
    <rect x="268" y="146" width="120" height="76" fill="#fce7f3"/>
    <rect x="298" y="160" width="60" height="46" rx="1" fill="#f9a8d4"/>
    <rect x="274" y="228" width="76" height="7" rx="1" fill="#1f2937"/>
    <rect x="274" y="240" width="58" height="5" rx="1" fill="#a8a29e"/>
    <rect x="274" y="252" width="38" height="7" rx="1" fill="#b45309"/>
    <rect x="274" y="264" width="50" height="4" rx="1" fill="#d6d3d1"/>
  </g>
</svg>
